<?xml version="1.0" encoding="utf-8"?>
<!-- Generator: Adobe Illustrator 23.0.3, SVG Export Plug-In . SVG Version: 6.00 Build 0)  -->
<svg version="1.1" id="Layer_1" xmlns="http://www.w3.org/2000/svg" xmlns:xlink="http://www.w3.org/1999/xlink" x="0px" y="0px"
	 viewBox="0 0 1897.71 1782.17" style="enable-background:new 0 0 1897.71 1782.17;" xml:space="preserve">
<style type="text/css">
	.st0{fill:#001735;}
	.st1{fill:url(#SVGID_1_);}
	.st2{fill:url(#SVGID_2_);}
	.st3{fill:url(#SVGID_3_);}
	.st4{fill:url(#SVGID_4_);}
	.st5{fill:url(#SVGID_5_);}
	.st6{fill:url(#SVGID_6_);}
	.st7{fill:url(#SVGID_7_);}
	.st8{fill:url(#SVGID_8_);}
	.st9{fill:url(#SVGID_9_);}
	.st10{fill:url(#SVGID_10_);}
	.st11{fill:url(#SVGID_11_);}
	.st12{fill:url(#SVGID_12_);}
	.st13{fill:#008100;}
	.st14{fill:url(#SVGID_13_);}
	.st15{fill:url(#SVGID_14_);}
	.st16{fill:url(#SVGID_15_);}
	.st17{fill:#D1D3D4;}
	.st18{fill:#FFFFFF;}
	.st19{fill:url(#SVGID_16_);}
	.st20{fill:url(#SVGID_17_);}
	.st21{fill:url(#SVGID_18_);}
	.st22{fill:url(#SVGID_19_);}
	.st23{fill:url(#SVGID_20_);}
	.st24{fill:url(#SVGID_21_);}
	.st25{fill:url(#SVGID_22_);}
	.st26{fill:url(#SVGID_23_);}
	.st27{fill:url(#SVGID_24_);}
	.st28{fill:url(#SVGID_25_);}
	.st29{fill:url(#SVGID_26_);}
	.st30{fill:url(#SVGID_27_);}
	.st31{fill:url(#SVGID_28_);}
	.st32{fill:url(#SVGID_29_);}
	.st33{fill:url(#SVGID_30_);}
	.st34{fill:url(#SVGID_31_);}
	.st35{fill:url(#SVGID_32_);}
	.st36{fill:url(#SVGID_33_);}
	.st37{fill:url(#SVGID_34_);}
	.st38{fill:url(#SVGID_35_);}
	.st39{fill:url(#SVGID_36_);}
	.st40{fill:url(#SVGID_37_);}
	.st41{fill:url(#SVGID_38_);}
	.st42{fill:url(#SVGID_39_);}
	.st43{fill:url(#SVGID_40_);}
	.st44{fill:url(#SVGID_41_);}
</style>
<g>
	<g>
		<linearGradient id="SVGID_1_" gradientUnits="userSpaceOnUse" x1="810.9916" y1="1426.2147" x2="810.9916" y2="604.2695">
			<stop  offset="0" style="stop-color:#FE8900"/>
			<stop  offset="1" style="stop-color:#FE2500"/>
		</linearGradient>
		<polygon class="st1" points="902.44,604.27 902.44,1426.21 719.55,1345.36 719.55,683.35 		"/>
		<linearGradient id="SVGID_2_" gradientUnits="userSpaceOnUse" x1="1214.9329" y1="1031.6707" x2="1214.9329" y2="610.9133">
			<stop  offset="0" style="stop-color:#FE8900"/>
			<stop  offset="1" style="stop-color:#F75910"/>
		</linearGradient>
		<polygon class="st2" points="1527.43,837.22 1527.43,927.53 1409.61,906.21 902.44,814.46 902.44,604.27 1409.61,793.31 		"/>
		<linearGradient id="SVGID_3_" gradientUnits="userSpaceOnUse" x1="1214.9329" y1="1550.4896" x2="1214.9329" y2="1049.7156">
			<stop  offset="0" style="stop-color:#FE8900"/>
			<stop  offset="1" style="stop-color:#F75910"/>
		</linearGradient>
		<polygon class="st3" points="1409.61,1048.47 1527.43,1041.81 1527.43,1187.24 1409.61,1232.4 903.17,1426.55 902.44,1426.21 
			902.44,1224.77 1409.61,1122.12 		"/>
		<linearGradient id="SVGID_4_" gradientUnits="userSpaceOnUse" x1="636.3614" y1="1315.5774" x2="636.3614" y2="355.6249">
			<stop  offset="0" style="stop-color:#153B68"/>
			<stop  offset="1" style="stop-color:#0C1845"/>
		</linearGradient>
		<polygon class="st4" points="902.44,356.19 902.44,560.92 719.55,639.01 652.21,667.78 652.21,1315.58 462.87,1231.86 
			370.29,1186.88 370.29,582.29 462.87,542.75 652.21,461.89 652.21,459.08 655.59,460.45 719.55,433.13 901.02,355.62 		"/>
		<linearGradient id="SVGID_5_" gradientUnits="userSpaceOnUse" x1="1067.6602" y1="522.5641" x2="1535.7926" y2="721.7247">
			<stop  offset="0" style="stop-color:#153B68"/>
			<stop  offset="0.3024" style="stop-color:#122F5C"/>
			<stop  offset="1" style="stop-color:#0C1845"/>
		</linearGradient>
		<polygon class="st5" points="1527.43,609.52 1527.43,813.84 1409.61,766.08 908.89,563.12 902.93,560.71 902.44,560.92 
			902.44,356.19 908.89,358.79 1148.36,455.89 1409.61,561.77 		"/>
	</g>
</g>
</svg>
